<svg width="26" height="26" viewBox="0 0 26 26" fill="none" xmlns="http://www.w3.org/2000/svg">
<mask id="mask0_220_47750" style="mask-type:alpha" maskUnits="userSpaceOnUse" x="0" y="0" width="26" height="26">
<rect width="25.5895" height="25.5895" fill="#D9D9D9"/>
</mask>
<g mask="url(#mask0_220_47750)">
<path d="M6.39648 12.754C6.39648 13.1731 6.55215 13.5323 6.88743 13.8436L16.2034 22.968C16.4668 23.2315 16.8021 23.3752 17.1973 23.3752C17.9876 23.3752 18.6222 22.7525 18.6222 21.9502C18.6222 21.5551 18.4546 21.2078 18.1911 20.9324L9.79718 12.754L18.1911 4.57556C18.4546 4.30015 18.6222 3.94093 18.6222 3.55775C18.6222 2.75547 17.9876 2.13281 17.1973 2.13281C16.8021 2.13281 16.4668 2.2765 16.2034 2.53994L6.88743 11.6524C6.55215 11.9757 6.39648 12.3349 6.39648 12.754Z" fill="black"/>
</g>
</svg>
